<svg width="918" height="697" viewBox="0 0 918 697" fill="none" xmlns="http://www.w3.org/2000/svg">
<path d="M89.5083 693C87.4833 691.333 85.8249 689.158 85.8249 688.258C85.5344 686.326 84.9734 684.443 84.1583 682.667C81.7666 677.083 79.0666 665.925 77.3999 654.758C76.6166 649.483 75.5166 642.2 74.9583 638.575C74.3999 634.95 73.1666 626.325 72.2166 619.408C68.5666 592.958 67.6999 587.408 66.0749 579.85C64.5916 573.006 63.3416 565.614 62.3249 557.675C60.7249 545.175 58.1999 528.992 57.0916 524.117C55.8166 518.508 53.3166 505.575 51.6416 495.95C51.3085 493.923 50.8464 491.919 50.2583 489.95C49.4249 487.7 49.1999 485.908 47.0416 465.983C46.0749 457.083 44.2083 443.592 42.8749 435.983C41.5416 428.375 39.5416 415.725 38.3916 407.808C37.2416 399.892 35.7833 392.083 35.1666 390.433C34.5499 388.783 33.7999 384.2 33.4999 380.242C33.1999 376.283 32.1416 367.925 31.0999 361.667C30.0583 355.408 28.7499 346.25 28.1666 341.333C26.5583 327.167 23.8499 308.425 22.4999 302.167C21.8166 299 20.6499 290.75 19.8916 283.833C19.1333 276.917 18.0249 269.358 17.3916 267.05C16.4749 263.533 15.2666 256.258 13.3083 242.483C13.1249 241.167 12.5999 236.85 12.1583 232.892C10.9999 222.683 7.99159 203.775 6.54993 198.117C5.48326 193.825 3.29993 180.033 0.791594 161.742C0.417127 158.178 0.819148 154.575 1.97 151.182C3.12085 147.788 4.99321 144.684 7.45826 142.083C9.70826 139.783 20.9833 139.25 30.0999 141.025C36.0666 142.175 37.8583 141.642 37.8583 138.692C37.8583 137.417 38.6333 136.392 39.5833 136.392C40.7083 136.392 41.5916 134.517 42.0833 130.992C42.5333 128.025 43.3333 125.6 43.8749 125.6C44.4166 125.6 44.8166 124 44.7583 122.05C44.6416 118.017 46.7916 114.808 49.5999 114.808C51.0749 114.808 51.1749 114.483 50.0583 113.367C46.9666 110.283 49.0083 104.6 54.2249 101.833C55.9416 100.917 56.6166 99.6834 56.2166 98.1667C55.3833 94.9417 57.8833 90.8334 60.6666 90.8334C62.2416 90.8334 63.0249 90 63.0249 88.4C63.0094 87.7641 63.1691 87.1362 63.4866 86.585C63.8041 86.0338 64.2671 85.5807 64.8249 85.275C65.2935 85.1091 65.7084 84.8191 66.0253 84.4361C66.3423 84.0531 66.5495 83.5914 66.6249 83.1C66.6249 79.7667 74.4916 77.0334 77.7833 79.1917C82.5666 82.325 83.6916 79.6 80.9083 71.6917C78.1249 63.7834 78.2166 65.025 80.4749 62.7667C82.1416 61.1 82.7916 61.1 87.0249 63.275C89.9103 64.6735 93.0412 65.4945 96.2416 65.6917C99.384 65.7917 102.509 66.1936 105.575 66.8917C124.45 71.5 176.667 67.6334 209.858 59.175C213.817 58.1667 220.558 56.5 224.858 55.475C229.158 54.45 234.542 53.1 236.85 52.475C241.017 51.3334 267.8 48.0417 274.6 47.8334C309.275 46.7667 343.1 50.8917 371.692 59.6667C396.758 67.3667 416.692 76.1084 423.625 82.4334C425.8 84.4167 427.95 86.0417 428.408 86.0417C428.867 86.0417 430.308 87.6584 431.625 89.625C435.792 95.8667 439.65 94.3834 460.008 78.7C463.733 75.8084 468.567 72.375 470.717 71.0584C474.967 68.4667 477.55 66.8417 483.158 63.2334C492.617 57.1584 536.492 38.0917 541.008 38.0917C541.667 38.0917 545.367 36.6834 549.242 34.9667C563.933 28.4417 618.525 14 650.375 8.20836C708.4 -2.34164 749.617 -2.62497 804.4 7.10003C811.65 8.3917 819.967 9.82503 822.875 10.2834C831.208 11.6084 832.167 13.9 837.875 47.6834C838.833 53.2834 840.208 60.8334 840.942 64.4667C843.842 78.7917 844.758 84.5084 845.175 90.8334C845.625 97.5584 846.525 103.333 850.617 125.592C851.883 132.517 853.483 142.258 854.175 147.167C857.883 173.775 859.066 181.8 861.883 199.308C863.55 209.858 865.783 223.342 866.783 229.308C867.783 235.275 868.917 243.608 869.283 247.892C869.65 252.175 870.483 256.3 871.083 257.058C871.683 257.817 872.667 262.933 873.283 268.442C874.883 282.783 877.642 302.175 878.475 304.892C878.867 306.175 879.767 312.075 880.467 318.008C881.167 323.942 882.258 331.767 882.875 335.392C883.492 339.017 884.867 347.892 885.941 355.167C887.016 362.442 888.2 369.167 888.6 370.167C889.127 371.922 889.438 373.736 889.525 375.567C889.633 377.542 890.917 385.633 892.367 393.542C893.817 401.45 895.792 412.783 896.758 418.717C897.725 424.65 898.992 432.2 899.591 435.492C900.191 438.783 901.308 446.325 902.091 452.275C905.883 481.292 906.933 488.792 908.116 495.425C908.825 499.383 909.625 504.775 909.9 507.417C910.808 516.167 911.033 517.417 911.942 518.3C913.608 519.967 912.883 528.175 910.958 530.1C908.725 532.342 908.583 532.358 905.467 530.692C902.625 529.167 901.175 530.075 902.967 532.258C904.758 534.442 910.033 565.458 911.075 579.367C911.325 582.7 912.908 592.825 914.583 601.917C918.341 622.258 918.483 620.25 913.141 622.892C909.133 624.9 904.433 625.233 869.691 625.95C848.266 626.392 823.183 627 813.95 627.292C781.733 628.333 717.558 629.025 651.175 629.05H584.317L581.675 631.892C579.653 634.18 577.769 636.587 576.033 639.1C562.642 658.617 463.533 669.725 446.583 653.608C444.275 651.417 441.583 649.442 440.583 649.283C437.908 648.783 424.025 650.6 420.583 651.9C418.917 652.517 413.467 653.567 408.408 654.208C403.35 654.85 393.267 656.208 386.017 657.208C378.767 658.208 368.867 659.533 364.025 660.167C359.183 660.8 354.333 661.592 353.242 661.925C352.15 662.258 344.783 663.333 336.867 664.325C328.95 665.317 305.767 668.617 285.325 671.65C264.883 674.683 243.042 677.9 236.783 678.783C230.525 679.667 221.833 680.975 217.475 681.683C207.658 683.292 158.308 689.433 134.9 691.958C125.342 692.992 113.908 694.358 109.492 695C96.8416 696.85 93.5583 696.533 89.4416 693.075L89.5083 693ZM110.167 664.5C110.708 663.092 107.217 638.558 103.833 619.983C103.233 616.65 101.658 608.058 100.325 600.817C98.9916 593.575 97.6499 585.733 97.3499 583.433C97.0499 581.133 95.1333 568.717 93.0999 555.867C91.0666 543.017 89.1749 530.6 88.9333 528.292C88.6916 525.983 84.5583 500.908 79.8166 472.558C75.0749 444.208 70.5083 416.433 69.6666 410.825C66.7083 391.225 64.1249 375.192 58.2083 339.508C52.7499 306.833 48.3249 278 45.0416 253.833C42.9499 238.508 36.6249 196.217 34.8083 185.5C33.7327 178.05 33.2701 170.525 33.4249 163C33.7916 149.742 32.0499 145.85 30.2333 155.867C30.0164 157.274 29.6504 158.654 29.1416 159.983C28.8666 160.483 29.1416 165.217 29.7583 170.492C30.9499 180.583 31.6166 186.55 32.4333 194.458C32.7083 197.1 34.0583 205.192 35.4416 212.442C38.0833 226.325 39.0749 233.025 42.1083 257.392C43.1416 265.633 44.7666 276.417 45.7333 281.367C47.8749 292.408 53.0499 325.133 54.0666 334.108C54.4749 337.733 56.1666 347.442 57.8249 355.683C59.4833 363.925 61.5666 375.25 62.4666 380.85C63.3666 386.45 64.9666 395.358 65.9833 400.633C66.9999 405.908 68.3916 414.533 69.0416 419.8C70.3166 430.258 72.7749 446.167 78.3916 480.333C83.8083 513.217 85.6666 525.983 87.5583 543.258C88.5083 551.833 89.8333 561 90.5083 563.642C91.1833 566.283 92.5416 572.75 93.5333 578.025C95.5999 589.075 96.8666 595.75 99.5583 609.258C100.608 614.567 101.117 619.833 100.683 620.925C100.475 621.52 100.412 622.157 100.499 622.781C100.586 623.406 100.82 624.001 101.183 624.517C102.592 626.183 106.183 651.183 106.183 659.35C106.183 665.642 108.533 668.667 110.15 664.45L110.167 664.5ZM116.917 659.242C114.5 644.7 111.983 623.183 112.458 621.1C113.133 618.108 114.625 623.833 118.15 643.017C121.675 662.2 123.7 662.958 151.75 655.967C157.085 654.806 162.491 654.002 167.933 653.558C173.185 653.13 178.395 652.295 183.517 651.058C189.77 649.575 196.099 648.426 202.475 647.617C209.608 646.667 216.217 645.25 217.158 644.458C218.1 643.667 220.4 643.342 222.425 643.742C224.45 644.142 226.258 643.992 226.592 643.425C226.925 642.858 228.983 642.1 231.133 641.758C241.367 640.017 246.042 638.892 248.442 637.592C249.883 636.817 254.467 636.175 258.633 636.167C266.675 636.167 276.642 634.675 302.8 629.583C359.017 618.617 418.2 618.75 451.6 629.858L464.35 634.117L467.058 631.617C469.383 629.45 469.558 628.817 468.158 627.15C465.525 623.975 456.558 618.225 454.208 618.2C451.367 618.2 448.258 616.192 449.35 615.1C450.925 613.533 462.117 618.075 468.742 622.967C476.317 628.567 478.792 628.9 483.383 624.95C487.975 621 481.5 614.6 472.833 614.6C472.298 614.65 471.765 614.49 471.345 614.154C470.925 613.818 470.652 613.333 470.583 612.8C470.583 609.733 477.95 610.65 483.967 614.467L489.442 617.933L493.442 614.517C498.35 610.35 498.642 610.617 484.275 605.542C472.608 601.425 468.125 599.017 472.117 599.017C473.217 599.017 476.967 600.033 480.45 601.283C495.917 606.808 501.767 608.233 501.767 606.467C501.767 603.25 480.4 595.433 457.417 590.242C449.842 588.533 440.667 586.708 437.042 586.183C433.417 585.658 430.708 584.708 431.05 584.033C432.008 582.125 435.175 582.525 456.183 587.208C483.825 593.375 492.358 596.058 501.433 601.375C507.717 605.083 512.775 601 506.975 596.892C499.367 591.517 473.075 583.775 455.025 581.6C451.4 581.158 444.008 580.058 438.6 579.1C411.3 574.492 341.933 576.658 284.817 583.908L261.483 586.892C224.4 591.65 198.725 591.108 170.142 584.992C157.942 582.383 158.883 585.6 150 516.233C148.95 507.992 147.558 498.558 146.908 495.258C145.692 488.992 139.225 446.192 137.325 431.783C136.725 427.192 135.975 422.617 135.658 421.592C135.342 420.567 134.542 415.425 133.85 410.158C133.158 404.892 131.833 395.708 130.892 389.775C129.95 383.842 128.067 371.442 126.725 362.208C125.383 352.975 123.15 338.142 121.8 329.242C120.45 320.342 118.533 307.667 117.533 301.075C112.142 265.358 105.033 220.733 102.033 203.983C101.092 198.708 98.9416 185.5 97.2583 174.617C95.5749 163.733 93.4333 150.267 92.4999 144.617C90.1583 130.533 88.5749 119.992 86.3833 103.867C83.9666 86.0584 83.8083 85.4667 80.8583 83.625C77.4416 81.4917 76.3749 83.525 77.5249 89.8834C78.0333 92.625 79.3333 101.617 80.4083 109.883C82.3666 124.883 83.7416 134.142 88.1749 163.217C95.7583 212.658 98.4749 229.842 101.275 245.925C102.542 253.175 103.925 261.808 104.358 265.092C104.792 268.375 106.767 281.042 108.742 293.208C112.375 315.592 113.108 328.083 110.183 317.833C109.433 315.2 107.683 304.95 106.283 295.058C104.883 285.167 102.95 272.225 101.992 266.292C101.033 260.358 98.5999 245.258 96.6083 232.725C94.6166 220.192 92.4999 207.533 91.9166 204.558C90.9166 199.475 89.6916 191.925 85.2499 163.208C84.2249 156.617 82.6249 146.367 81.6916 140.433C80.7583 134.5 79.1916 123.433 78.1166 115.858C73.9499 85.4917 73.5749 83.3167 72.3583 84.5334C71.5666 85.3667 71.6416 88.7 72.5833 94.5334C73.3666 99.3584 74.4749 107.35 75.0833 112.3C75.6916 117.25 76.9416 126.408 77.9166 132.675C81.6916 156.75 82.7416 168.45 81.2499 170.175C79.7583 171.9 80.7583 180.175 85.2249 205.175C97.4999 273.892 97.8749 276.5 95.5916 276.5C94.2916 276.5 94.3916 277.017 87.7333 236.342C84.7166 217.883 81.4416 198.467 80.4499 193.192C79.4583 187.917 78.4416 180.9 78.1833 177.608C78.0304 174.985 77.6597 172.379 77.0749 169.817C76.7249 168.825 75.0083 158.85 73.2499 147.642C64.9916 94.9584 65.2833 96.4 63.1333 98.575C62.4499 99.2584 62.6583 104.108 63.6666 111.075C64.5666 117.333 66.1666 128.392 67.1916 135.65C70.8083 160.917 72.8083 174.042 73.9333 180C74.5666 183.292 75.5999 190.208 76.2666 195.367C78.5666 213.383 76.7583 213.092 73.8999 194.983C73.1249 190.042 71.7583 182.217 70.8749 177.6C68.4749 165.175 65.7416 149.167 63.6999 135.65C59.4583 107.575 59.1833 106.283 57.3916 106.283C55.4333 106.283 55.5166 107.675 58.8083 129.658C62.8166 156.392 66.9833 186.325 68.4833 199.175C69.3166 206.433 70.3999 213.342 70.8749 214.458C71.3499 215.575 71.1916 216.558 70.4249 216.558C68.7583 216.558 68.8666 217.317 60.7249 167.392C59.3833 159.15 57.4749 147.55 56.4833 141.617C55.4916 135.683 54.3499 128.567 53.9833 125.783C53.6166 123 52.4999 120.475 51.5916 120.125C49.5749 119.358 49.4916 121.6 51.1999 130.342C53.0833 139.958 55.5166 162.008 54.9083 163.842C54.2499 165.817 51.5749 155.867 50.4749 147.267C50.0249 143.8 49.1083 140.6 48.4499 140.217C47.7916 139.833 47.4833 140.942 47.9249 143.55C48.2999 145.783 49.4083 152.467 50.4249 158.4C51.4416 164.333 52.7666 172.15 53.4333 175.775C55.9333 189.108 59.6499 211.375 60.7916 219.525C61.9333 227.675 65.1499 247.383 68.6249 267.475C69.5416 272.75 71.1249 282.475 72.0749 289.05C73.0249 295.625 74.2083 302.725 74.6249 304.792C75.5083 309.158 73.1749 311.6 72.1249 307.383C71.4666 304.675 68.4166 287.383 64.8833 266.275C64.098 261.296 63.0634 256.359 61.7833 251.483C61.0666 249.283 59.7833 242 58.9333 235.3C58.0833 228.6 56.1833 216.767 54.8333 208.833C52.0999 192.917 45.2749 151.442 44.2249 144.408C43.8583 141.908 43.0583 139.908 42.4416 139.908C41.8249 139.908 41.6083 140.858 41.9499 142.008C42.4999 143.808 44.7416 160.633 46.9499 179.508C47.8749 187.383 44.5833 180.183 43.3833 171.708C41.7999 160.55 39.8249 152.075 38.9249 152.625C38.0249 153.175 38.0916 154.592 42.8999 183.1C44.8499 194.642 46.9166 207.6 47.4833 211.9C47.8464 215.125 48.4029 218.325 49.1499 221.483C49.5083 222.458 50.3583 227.842 51.0333 233.45C51.7083 239.058 53.0249 247.683 53.9416 252.617C54.8583 257.55 55.2083 262.042 54.6999 262.567C54.1916 263.092 53.4249 260.9 52.9916 257.775C52.5583 254.65 51.3916 248 50.3749 243C49.3583 238 48.0583 230.775 47.4916 226.817C46.9481 223.001 46.1717 219.221 45.1666 215.5C44.4096 212.964 43.9427 210.35 43.7749 207.708C43.543 204.843 42.9522 202.018 42.0166 199.3L40.3499 194.508L40.9416 199.3C41.2666 201.942 42.0166 207.333 42.6083 211.292C43.1999 215.25 44.7499 225.767 46.0666 234.625C47.3833 243.483 49.0166 253.242 49.6916 256.208C50.3666 259.175 51.8166 267.8 52.9166 275.375C54.0166 282.95 55.3666 291.317 55.9333 293.95C56.4999 296.583 58.0749 306.3 59.4333 315.533C60.7916 324.767 62.4166 335.275 63.0333 338.867C64.7749 349.033 68.7916 374.833 71.5166 393.408C72.8749 402.642 74.7416 414.775 75.6833 420.375C76.6249 425.975 78.7416 439.467 80.4416 450.375C82.1416 461.283 83.9999 472.042 84.6083 474.35C85.406 477.926 86.0096 481.542 86.4166 485.183C86.8249 488.808 88.4583 499.592 90.0416 509.15C91.6249 518.708 93.7833 532.2 94.8333 539.15C95.8833 546.1 97.5083 556.058 98.4499 561.325C100.483 572.742 103.45 590.933 109.192 627.258C110.125 633.192 111.242 641.275 111.692 645.233C112.883 656.233 115.517 665.008 117.633 665.008C117.792 665.008 117.5 662.45 116.975 659.317L116.917 659.242ZM123.167 654.442C122.567 653.292 121.158 644.8 120.042 635.567C118.925 626.333 117.192 614.567 116.183 609.417C115.175 604.267 114.608 598.333 114.933 596.233C115.425 593.075 107.042 522.508 104.225 506.108C103.508 501.942 103.633 501.5 105.233 502.825C106.325 503.717 107.358 507.342 107.808 511.808C108.225 515.925 109.4 524.692 110.425 531.283L114.717 558.833C116.05 567.408 117.65 579 118.275 584.608C118.9 590.217 119.942 598.033 120.542 601.983C123.658 621.75 125.4 633.8 126.042 640.042L126.75 646.933H136.817C143.117 646.866 149.402 646.287 155.608 645.2L174.517 641.442C179.382 640.519 184.186 639.294 188.9 637.775L193.067 636.108L188.9 636.758C186.592 637.117 180.925 638.058 176.317 638.842C162.983 641.108 133.192 640.508 131.6 637.942C130.767 636.583 129.783 630.733 127.167 611.55C124.342 590.8 121.992 575.4 119.608 562.092C118.392 555.333 117.667 549.533 117.992 549.208C119.417 547.783 120.567 548.883 120.567 551.708C120.567 553.375 121.625 560.267 122.925 566.992C124.225 573.717 126.7 588.925 128.417 600.792C133.192 633.658 133.233 633.892 134.95 634.958C138.758 637.308 161.575 637.692 174.417 635.617C191.517 632.85 194.417 632.233 211.083 627.817C219 625.725 230.867 622.967 237.458 621.7C244.05 620.433 251.875 618.892 254.842 618.275C260.983 616.992 263.358 618.183 261.283 621.5C260.45 622.792 257.775 623.833 254.117 624.275C247.717 625.042 221.55 631.883 206.292 636.775C201.017 638.442 192.283 640.717 186.875 641.775C178.7 643.383 176.983 644.117 176.683 646.142C176.383 648.167 174.383 649.017 164.942 651.225C139.167 657.242 125.192 658.317 123.175 654.45L123.167 654.442ZM146.35 651.65C153.6 650.817 160.517 649.708 161.692 649.1C164.014 648.144 166.422 647.41 168.883 646.908C173.358 645.933 173.05 645.875 166.383 646.367C162.217 646.675 157.742 647.508 156.383 648.225C155.025 648.942 147.525 649.625 139.667 649.742C129.667 649.883 125.383 650.367 125.375 651.358C125.375 652.85 128.342 653.858 131.358 653.383C132.35 653.233 139.092 652.45 146.358 651.65H146.35ZM198.167 635.333C196.987 635.027 195.747 635.041 194.575 635.375C193.742 635.708 194.717 635.95 196.692 635.925C198.667 635.9 199.333 635.633 198.167 635.333ZM151.75 628.833C133.042 627.767 134.4 628.942 132.758 612.458C131.975 604.708 130.817 594.883 130.158 590.592C129.5 586.3 128.392 577.942 127.7 572.008C126.483 561.592 125.5 553.433 122.85 531.858C122.167 526.25 121.375 520.317 121.1 518.675C120.825 517.033 120.1 511.358 119.5 506.083C118.9 500.808 118.083 494.342 117.692 491.7C116.217 481.608 111.992 450.55 110.925 441.958C110.308 437.017 109.6 431.892 109.342 430.575C108.692 427.242 107.2 416.108 106.842 411.575C106.658 409.5 105.617 401.575 104.533 394.008C101.525 373.05 98.8916 348.175 99.6083 347.5C100.833 346.275 101.575 348.258 102.708 355.833C107.433 387.5 109.833 405.292 109.833 408.717C109.833 410.925 110.433 413.333 111.175 414.067C111.917 414.8 114.325 426.383 116.533 439.783C118.742 453.183 121.383 468.458 122.425 473.733C123.467 479.008 124.85 487.367 125.5 492.317C125.905 495.943 126.514 499.543 127.325 503.1C127.692 504.092 128.758 510.833 129.7 518.1C131.917 535.092 134.592 551.583 136.133 557.658C137.8 564.258 137.8 569.908 136.133 568.233C135.417 567.517 134.083 561.175 133.158 554.125C132.233 547.075 131.258 540.95 130.983 540.492C130.708 540.033 130.15 536.458 129.675 532.525C129.446 529.904 129.045 527.302 128.475 524.733C127.946 522.754 127.572 520.737 127.358 518.7C126.95 515.733 125.525 507.375 124.183 500.125C122.842 492.875 120.592 479.958 119.183 471.433C114.183 441.158 115.85 459.242 122.958 511.675C126.925 540.917 130.408 567.275 130.708 570.242C132.708 590.508 136.467 619.217 137.375 621.417C139.042 625.258 144.383 625.983 171.267 625.983C192.833 625.983 199.458 626.725 192.242 628.333C187.783 629.333 165.208 629.625 151.792 628.858L151.75 628.833ZM115.417 449.483C115.108 448.325 114.867 449.275 114.867 451.575C114.867 453.875 115.108 454.833 115.417 453.675C115.717 452.294 115.717 450.865 115.417 449.483ZM149.95 620.65C140.375 618.092 137.358 615.192 137.358 608.517C137.358 604.567 139.308 605.967 140.817 611.017C142.158 615.508 142.542 615.817 146.758 615.817C149.258 615.817 151.867 616.417 152.592 617.142C153.467 617.975 162.117 618.508 178.017 618.575C194.925 618.65 201.725 619.05 200.842 619.942C199.317 621.467 155.292 622.1 149.95 620.675V620.65ZM187.108 614.308C141.208 612.742 142.292 613.158 140.175 596.325C138.75 585.008 139.883 579.35 141.892 587.767C142.5 590.325 143.75 595.633 144.675 599.567C146.55 607.55 146.842 607.725 161.342 609.192C164.967 609.567 169.025 610.1 170.35 610.383C171.675 610.667 182.608 611.025 194.625 611.167C206.642 611.308 216.483 611.808 216.483 612.267C216.483 614.767 211.258 615.133 187.117 614.308H187.108ZM189.5 608.433L172.125 606.033C166.517 605.267 159.825 604.467 157.233 604.275C149.642 603.692 148.658 601.775 145.208 580.7C143.833 572.367 144.725 566.125 146.333 572.892C147.375 577.283 149.342 587.242 150.133 592.117C150.567 594.767 151.533 596.608 152.5 596.608C153.467 596.608 154.167 597.15 154.167 597.808C154.167 598.467 155.283 599.008 156.667 599.008C158.302 599.075 159.905 599.481 161.375 600.2C164.65 601.958 195.442 606.192 204.933 606.2C210.95 606.2 212.992 606.6 212.625 607.7C212.025 609.508 200.067 609.883 189.55 608.433H189.5ZM188.308 601.333C176.267 599.858 157.567 596.583 154.608 595.433C152.667 594.675 151.917 593.092 151.408 588.65C151.05 585.467 149.892 578.275 148.85 572.675C147.808 567.075 144.767 547.408 142.108 528.983C139.45 510.558 136.658 494.758 135.925 493.875C135.033 492.8 134.983 491.858 135.783 491.067C138.783 488.067 141.275 499.567 147.008 542.925C147.583 547.333 148.367 552.183 148.742 553.758C149.117 555.333 150.208 561.383 151.167 567.317C154.5 587.608 154.95 589.55 157.25 591.292C159.206 592.688 161.615 593.298 164 593C165.803 593.482 167.58 594.055 169.325 594.717C177.542 597.617 206.158 600.617 217.442 599.767C225.217 599.183 227.325 599.35 226.933 600.525C226.317 602.375 201.058 602.908 188.275 601.358L188.308 601.333ZM188.308 594.775C183.033 593.817 176.292 592.417 173.308 591.667C170.739 590.989 168.131 590.463 165.5 590.092C162.117 589.817 158.158 587.417 159.258 586.317C159.767 585.808 162.033 586.067 164.258 586.883C182.35 593.425 235.7 595.217 252.825 589.9C254.342 589.425 254.892 589.708 254.542 590.733C253.092 595.075 205.867 597.925 188.258 594.733L188.308 594.775ZM257.975 591C256.992 590.008 282.783 586 290.692 585.917C299.558 585.817 295.792 586.75 277.042 589.367C255.983 592.283 259.008 592.025 257.975 591.033V591ZM132.592 465.875C132.525 463.45 129.8 450.325 128.725 447.25C127.15 442.733 128.483 435.4 130.3 438.642C132.033 441.733 134.717 463.225 133.633 464.992C133.092 465.825 132.633 466.242 132.625 465.875H132.592ZM499.358 618.517C498.058 616.5 498.025 616.5 498.675 618.583C499.085 619.943 499.364 621.338 499.508 622.75C499.633 624.55 499.7 624.55 500.183 622.692C500.409 621.248 500.113 619.771 499.35 618.525L499.358 618.517ZM507.167 617.058C506.258 610.525 504.15 608.725 504.15 614.508C504.15 618.55 506.275 624.842 507.3 623.817C507.683 623.442 507.617 620.4 507.158 617.058H507.167ZM518 612.608C516.858 603.442 515.983 605.233 516.967 614.683C517.408 618.908 518.008 621.658 518.3 620.792C518.592 619.925 518.45 616.242 518 612.608ZM533.392 618.492C532.267 613.775 531.725 613.625 531.725 617.983C531.725 620.083 532.275 621.783 532.95 621.783C533.625 621.783 533.85 620.45 533.383 618.492H533.392ZM563.842 617.167C566.314 614.845 569.193 612.998 572.333 611.717C575.233 610.592 582.225 607.275 587.875 604.342C593.525 601.408 598.708 599.008 599.458 599.008C600.208 599.008 603 597.933 605.725 596.617C611.108 594.017 613.225 593.633 613.225 595.25C613.225 595.817 610.258 597.217 606.633 598.358C603.008 599.5 600.042 600.925 600.042 601.517C600.042 603.108 600.825 602.992 618.892 598.55C641.625 592.975 673.058 587.175 684.55 586.425C745.667 582.467 770.667 582.45 803.808 586.333L824.783 588.833C841.694 590.788 858.496 593.591 875.125 597.233C890.583 600.717 890.125 600.675 890.125 598.733C890.125 595.008 851.933 583 824.2 578.008C814.325 576.233 811.425 574.9 811.633 572.242C811.875 569.158 814.967 569.042 829.508 571.533C836.875 572.8 839.125 572.833 839.508 571.717C840.275 569.417 845.725 570 860.341 573.925C888.525 581.492 888.933 581.583 888.933 580.125C888.933 579.608 885.6 578.217 881.617 577.017C873.075 574.517 873.283 571.808 881.85 573.783C895.35 576.9 891.742 573.408 876.642 568.783C844.05 558.717 837.9 557.117 815.5 553.05C803.367 550.842 801.85 548.208 813.342 549.283C821.608 550.058 858.233 558.692 869.175 562.442C887.733 568.8 889.891 569 889.175 564.233C888.525 559.85 886.35 558.8 872.841 556.4C867.617 555.475 861.417 554.225 859.058 553.633C856.7 553.042 850.183 551.967 844.575 551.183C838.967 550.4 829.267 548.983 823 547.975C816.733 546.967 805.95 545.892 799.025 545.567C784.35 544.9 783.25 544.65 784.192 542.233C785.025 540.058 791.342 539.808 801.358 541.542C805.017 542.175 812.333 543.317 817.608 544.042C860.108 550.117 871.516 552.058 880.85 554.875C889.417 557.425 892.05 556.867 890.5 552.817C889.258 549.583 857.1 540.917 835.667 538.042C830.442 537.342 825.9 536.5 825.583 536.183C822.033 532.633 845.117 535.475 869.242 541.55C890.558 546.925 892.283 547.192 890.267 544.767C888.833 543.033 878.8 539.983 859.858 535.533C848.133 532.775 843.725 530.442 853.267 532.042C872.325 535.242 879.933 536.95 893.425 541.05C897.367 542.25 896.833 539.383 892.825 537.858C886.992 535.583 864.492 530.458 845.775 527.133C838.025 525.758 828.6 525.117 813.042 524.917C802.383 524.783 803.533 522.483 814.383 522.233C821.725 522.075 821.942 521.992 817.008 521.333C805.708 519.833 753.908 523.325 728.308 527.325C702.3 531.383 697.1 532.325 691.15 533.8C687.525 534.717 679.975 536.583 674.367 537.967C656.558 542.275 633.533 548.542 626.583 550.992C622.867 552.292 614.433 555.067 607.842 557.167C590.342 562.725 565.417 571.458 559.9 573.967C539.733 583.133 533.467 586.317 525.933 591.233C517.017 597.067 516.292 597.983 518.917 600.167C520.1 601.15 521.958 600.492 526.417 597.5C533.267 592.908 543.192 587.675 555.108 582.392C559.725 580.342 565.858 577.583 568.742 576.267C571.625 574.95 574.158 574.05 574.367 574.258C575.608 575.5 571.533 577.925 558.708 583.558C544.183 589.942 523.425 601.392 523.375 603.05C523.283 605.85 537.308 600.092 544.667 594.3C546.333 593.017 548.517 591.975 549.575 591.983C550.633 591.992 549.683 593.117 547.317 594.55C540.275 598.817 532.383 604.358 531.483 605.683C528.35 610.167 533.15 609.642 540.65 604.692C547.042 600.45 572.55 587.192 574.442 587.125C575.05 587.125 577.692 586.042 580.333 584.775C582.221 583.78 584.211 582.99 586.267 582.417C589.92 581.417 593.519 580.229 597.05 578.858C617.992 571.217 628.475 568.95 627.883 572.192C627.692 573.258 621.833 575.125 606.867 578.858C603.977 579.628 601.167 580.672 598.475 581.975C593.9 583.965 589.218 585.699 584.45 587.167C562.408 594.35 536.5 607.167 536.5 610.85C536.5 612.342 545.117 614.958 545.933 613.717C547.175 611.842 563.175 602.608 565.192 602.608C566.225 602.608 562.883 605.292 557.775 608.558C547.9 614.9 545.958 618.2 552.092 618.2C554.075 618.2 555.692 618.742 555.692 619.4C555.692 621.85 560.692 620.483 563.85 617.183L563.842 617.167ZM567.667 608.608C567.667 607.958 571.983 605.275 577.258 602.6C583.408 599.508 586.85 598.333 586.85 599.333C586.85 600.167 582.792 602.883 577.833 605.333C567.933 610.242 567.675 610.333 567.675 608.608H567.667ZM906.5 605.883C906.175 605.05 905.925 606.025 905.95 608.008C905.975 609.992 906.242 610.65 906.55 609.483C906.854 608.3 906.837 607.057 906.5 605.883ZM598.258 602.817C597.517 602.075 592.867 603.933 592.867 604.975C592.867 605.525 594.175 605.358 595.775 604.608C597.375 603.858 598.492 603.042 598.275 602.808L598.258 602.817ZM904.583 590.767C903.883 589.458 903.3 585.767 903.292 582.617C903.292 576.725 901.75 572.617 900.167 574.192C899.383 574.975 902.375 590.783 904.183 595.425C904.766 596.933 904.958 596.892 905.367 595.183C905.562 593.663 905.28 592.119 904.558 590.767H904.583ZM509.625 578.833C508.575 572.458 505.533 554.033 502.842 537.875C500.15 521.717 496.667 500.158 495.058 489.95C493.45 479.742 491.308 467.333 490.308 462.383C489.308 457.433 487.467 447.158 486.217 439.583C481.867 413.125 454.825 245.858 451.925 227.417C450.317 217.2 448.692 208.033 448.308 207.042C447.925 206.05 446.883 199.85 445.992 193.258C445.1 186.667 443.275 175.067 441.958 167.483C440.642 159.9 438.417 145.075 437.025 134.525C431.95 96.0583 432.658 98.6917 425.942 92.5417C413.958 81.5 389.658 69.6167 366.292 63.375C361.342 62.05 354.333 60.1417 350.708 59.1417C318.042 50.0917 264.875 51.05 225.45 61.3834C175.233 74.5667 128.333 77.4 89.3833 69.6084C84.9666 68.725 84.9999 67.45 88.8666 92.1584C90.5333 102.933 92.6916 117.158 93.6083 123.733C94.5249 130.308 95.8166 138.958 96.4583 142.9C97.0999 146.842 98.7333 157.108 100.075 165.675C105.717 201.608 110.983 234.433 112.1 240.592C112.75 244.217 114.675 256.625 116.367 268.167C118.058 279.708 119.7 289.95 119.992 290.95C120.283 291.95 121.333 298.142 122.292 304.733C123.25 311.325 124.625 319.942 125.333 323.9C127.367 335.25 131.325 362.167 133.175 377.233C134.108 384.817 135.167 392.233 135.533 393.725C135.9 395.217 137.575 406.008 139.25 417.7C143.758 449.1 145.508 460.592 147.517 471.925C148.508 477.525 149.875 487.242 150.55 493.5C151.225 499.758 152.3 507.583 152.925 510.883C153.55 514.183 154.592 521.192 155.283 526.467C155.975 531.742 157.575 543.592 158.908 552.8C160.242 562.008 161.317 571.042 161.317 572.875C161.317 580.225 169.892 583.133 199.508 585.85C222.15 587.925 241.017 586.55 305.158 578.117C319.967 576.167 337.608 574.625 368.083 572.608C412.25 569.683 482.783 579.275 505.25 591.292C512.083 594.942 512.225 594.525 509.625 578.792V578.833ZM888.908 591.217C888.913 590.745 888.73 590.291 888.401 589.954C888.071 589.616 887.621 589.423 887.15 589.417C885.183 589.137 883.266 588.575 881.458 587.75C877.708 586.158 866.225 582.825 853.808 579.733C850.658 578.95 847.742 578.65 847.317 579.075C846.892 579.5 847.458 579.833 848.567 579.833C849.987 579.916 851.379 580.27 852.667 580.875C856.708 582.9 878.067 589.425 880.767 589.467C882.589 589.595 884.342 590.214 885.841 591.258C888.725 593.458 888.908 593.442 888.908 591.258V591.217ZM527.142 586.275C537.383 579.708 550.2 573.592 568.267 566.65C575.517 563.867 582.525 561.117 583.85 560.542C586.058 559.575 605.058 553.083 622.183 547.425C634.433 543.392 667.358 534.342 674.925 532.925C678.169 532.368 681.373 531.6 684.517 530.625C688.069 529.593 691.689 528.808 695.35 528.275C699.958 527.508 705.408 526.375 707.45 525.775C729.433 519.108 812.733 514.725 844.575 518.583C850.183 519.267 860.15 520.158 866.733 520.575C873.317 520.992 883.025 522.092 888.308 523.025C907.05 526.358 906.8 526.483 903.992 512.375C901.966 502.258 899.358 486.242 896.725 467.783C894.458 451.95 889.983 423.792 885.941 400.058C884.275 390.5 882.192 376.475 881.208 368.892C878.483 347.875 876.958 337.633 875.692 332.017C875.035 329.024 874.65 325.978 874.542 322.917C874.395 319.404 873.996 315.906 873.35 312.45C871.483 302.233 867.567 276.925 866.225 266.4C865.558 261.125 864.225 251.95 863.275 246.025C862.325 240.1 860.7 229.567 859.675 222.65C858.65 215.733 857.25 207.367 856.575 204.067C855.35 198.1 851.7 174.9 846.992 142.933C842.825 114.85 842.05 109.725 840.375 100.383C836.125 76.65 833.775 63.0584 832.5 54.8334C831.717 49.8917 829.942 39.9167 828.542 32.6584L826 19.475L816.342 15.6167C794.85 7.0417 727.95 2.10836 693.55 6.5667C679.767 8.35836 666.45 10.2417 662.383 10.9917C660.717 11.2917 652.917 12.6584 645 14.0667C616.525 19.0667 545.592 39.0167 534.5 45.1334C531.658 46.7 525.333 49.25 517.95 51.8417C500.625 57.9 456.633 85.35 442.033 99.2084C438.7 102.4 438.767 106.325 442.867 132.15C444.317 141.375 446.358 154.867 447.392 162.15C448.425 169.433 450.517 183.158 452.042 192.717C453.567 202.275 455.158 213.333 455.567 217.283C456.104 221.929 456.939 226.536 458.067 231.075C459 234.667 466.783 281.333 475.308 334.708C483.833 388.083 492.175 439.883 493.842 449.775C495.508 459.667 497.458 471.533 498.183 476.142C499.342 483.542 501.192 493.558 505.258 514.475C505.9 517.808 507.542 528.025 508.908 537.25C510.275 546.475 511.908 556.733 512.542 560.025C513.175 563.317 514.275 571.142 514.983 577.408C516.892 594.458 515.7 593.583 527.142 586.25V586.275ZM897.333 532.033C897.333 527.692 888.1 525.558 855.375 522.325C823.908 519.217 827.733 520.908 868.892 528.325C872.122 528.904 875.321 529.65 878.475 530.558C882.95 531.958 892.175 533.892 895.233 534.142C895.519 534.18 895.81 534.153 896.083 534.06C896.356 533.968 896.604 533.814 896.807 533.609C897.01 533.405 897.164 533.156 897.255 532.883C897.346 532.61 897.373 532.319 897.333 532.033ZM39.9249 184.575C39.6499 182.767 39.4249 184.25 39.4249 187.908C39.4249 191.567 39.6499 193.017 39.9249 191.2C40.2028 189 40.2028 186.775 39.9249 184.575ZM79.4499 160.592C79.1499 159.45 78.9083 160.667 78.9249 163.3C78.9416 165.933 79.1833 166.875 79.4666 165.383C79.7584 163.799 79.7527 162.174 79.4499 160.592ZM75.8499 137.817C75.5499 136.675 75.3166 137.892 75.3249 140.533C75.3333 143.175 75.5916 144.1 75.8749 142.617C76.16 141.029 76.1516 139.402 75.8499 137.817Z" fill="#EEEEEE" fill-opacity="0.1"/>
</svg>
